D:\school\WTK\thesis\model\3dpredictsim\Results\debug_batch\Pog_s1_tmt_aCst_d00_k500_ig24_pas_GRF.mot
nRows=22
nColumns=19

name D:\school\WTK\thesis\model\3dpredictsim\Results\debug_batch\Pog_s1_tmt_aCst_d00_k500_ig24_pas_GRF.mot
datacolumns 19
datarows 22
range 0.5626429476 0.7989529855
endheader
time 	ground_force_vx	ground_force_vy	ground_force_vz	ground_force_px	ground_force_py	ground_force_pz	1_ground_force_vx	1_ground_force_vy	1_ground_force_vz	1_ground_force_px	1_ground_force_py	1_ground_force_pz	ground_torque_x	ground_torque_y	ground_torque_z	1_ground_torque_x	1_ground_torque_y	1_ground_torque_z
        0.5626429476	       96.7931096546	      486.4324642813	        5.8710692719	        0.3815764689	        0.0000000000	        0.0328986282	      -77.0887987468	       78.6471319213	      -44.9809621456	        0.8807508488	        0.0000000000	       -0.0362955627	        0.0000000000	        0.0000000000	        0.0000000000	        0.0000000000	        0.0000000000	        0.0000000000	
        0.5738958065	       77.3422524812	      404.3321457236	       11.7118700993	        0.3856673557	        0.0000000000	        0.0316676663	      -74.2633679321	      172.8718617816	      -88.6239750512	        0.8860667268	        0.0000000000	       -0.0342997323	        0.0000000000	        0.0000000000	        0.0000000000	        0.0000000000	        0.0000000000	        0.0000000000	
        0.5851486655	       53.6008386421	      308.8105202933	        9.1973580097	        0.3923482932	        0.0000000000	        0.0290058270	      -42.2373130487	      324.5555118783	      -21.0318497525	        0.8895600856	        0.0000000000	       -0.0319806188	        0.0000000000	        0.0000000000	        0.0000000000	        0.0000000000	        0.0000000000	        0.0000000000	
        0.5964015244	       27.6351936330	      209.0888581893	        7.9632370728	        0.4041073304	        0.0000000000	        0.0237160843	      -43.8909152612	      483.6498951027	       -0.2940727687	        0.8937833031	        0.0000000000	       -0.0324832910	        0.0000000000	        0.0000000000	        0.0000000000	        0.0000000000	        0.0000000000	        0.0000000000	
        0.6076543834	        7.5180272782	      143.8914371372	       10.8889170729	        0.4173743279	        0.0000000000	        0.0168559292	      -81.5932491570	      664.6121154543	        7.4092630772	        0.9021212774	        0.0000000000	       -0.0350446227	        0.0000000000	        0.0000000000	        0.0000000000	        0.0000000000	        0.0000000000	        0.0000000000	
        0.6189072423	        1.0702286718	      113.2407306159	       11.5235158014	        0.4172132829	        0.0000000000	        0.0171614971	     -107.4123360575	      788.3138109475	       10.9836675248	        0.9082651871	        0.0000000000	       -0.0368442963	        0.0000000000	        0.0000000000	        0.0000000000	        0.0000000000	        0.0000000000	        0.0000000000	
        0.6301601013	       -1.7446470926	       74.2325680791	       10.3568789452	        0.4177943888	        0.0000000000	        0.0172039506	     -113.6973459284	      836.9631863068	       12.2819393523	        0.9124808515	        0.0000000000	       -0.0379353591	        0.0000000000	        0.0000000000	        0.0000000000	        0.0000000000	        0.0000000000	        0.0000000000	
        0.6414129602	       -7.5930712649	       30.7666633078	        5.8727060036	        0.4175508597	        0.0000000000	        0.0171139690	     -109.0335051545	      836.7390637377	       12.4312887372	        0.9157364341	        0.0000000000	       -0.0385891392	        0.0000000000	        0.0000000000	        0.0000000000	        0.0000000000	        0.0000000000	        0.0000000000	
        0.6526658192	        0.0985365547	       -0.0976723185	       -0.0013980918	        0.0000000000	        0.0000000000	        0.0000000000	     -100.0420017576	      818.7819863930	       12.9406080562	        0.9189660216	        0.0000000000	       -0.0389422753	        0.0000000000	        0.0000000000	        0.0000000000	        0.0000000000	        0.0000000000	        0.0000000000	
        0.6639186781	        0.0001141367	       -0.0000920976	        0.0000074192	        0.0000000000	        0.0000000000	        0.0000000000	      -88.0475745974	      790.6574926975	       13.7875152149	        0.9223851620	        0.0000000000	       -0.0390994536	        0.0000000000	        0.0000000000	        0.0000000000	        0.0000000000	        0.0000000000	        0.0000000000	
        0.6751715371	        0.0000773131	       -0.0000542969	        0.0000062325	        0.0000000000	        0.0000000000	        0.0000000000	      -76.4057955559	      756.5853506653	       14.2898193124	        0.9262351740	        0.0000000000	       -0.0391735214	        0.0000000000	        0.0000000000	        0.0000000000	        0.0000000000	        0.0000000000	        0.0000000000	
        0.6864243960	        0.0009258808	       -0.0005824665	        0.0000817221	        0.0000000000	        0.0000000000	        0.0000000000	      -66.9544887051	      725.7366626092	       14.5997343685	        0.9307708383	        0.0000000000	       -0.0391178114	        0.0000000000	        0.0000000000	        0.0000000000	        0.0000000000	        0.0000000000	        0.0000000000	
        0.6976772550	        0.0028461666	       -0.0016415021	        0.0002637858	        0.0000000000	        0.0000000000	        0.0000000000	      -57.6821810847	      696.1813712567	       15.1351930663	        0.9355078288	        0.0000000000	       -0.0390333789	        0.0000000000	        0.0000000000	        0.0000000000	        0.0000000000	        0.0000000000	        0.0000000000	
        0.7089301139	       -0.0333676145	        0.0179191462	       -0.0031935911	        0.0000000000	        0.0000000000	        0.0000000000	      -48.9755769239	      668.2906584207	       15.8002369975	        0.9402431050	        0.0000000000	       -0.0389902274	        0.0000000000	        0.0000000000	        0.0000000000	        0.0000000000	        0.0000000000	        0.0000000000	
        0.7201829729	       -0.0218690430	        0.0110542997	       -0.0021474655	        0.0000000000	        0.0000000000	        0.0000000000	      -41.2093842170	      643.8610008091	       16.3701807178	        0.9449309439	        0.0000000000	       -0.0389908999	        0.0000000000	        0.0000000000	        0.0000000000	        0.0000000000	        0.0000000000	        0.0000000000	
        0.7314358318	       -0.0151536447	        0.0072728590	       -0.0015198670	        0.0000000000	        0.0000000000	        0.0000000000	      -34.5870058052	      623.3356798345	       16.9784874976	        0.9496338459	        0.0000000000	       -0.0390189228	        0.0000000000	        0.0000000000	        0.0000000000	        0.0000000000	        0.0000000000	        0.0000000000	
        0.7426886908	       -0.0136535409	        0.0062684517	       -0.0013876999	        0.0000000000	        0.0000000000	        0.0000000000	      -28.9353195394	      607.0864610435	       17.4654586886	        0.9545722165	        0.0000000000	       -0.0390550688	        0.0000000000	        0.0000000000	        0.0000000000	        0.0000000000	        0.0000000000	        0.0000000000	
        0.7539415497	       -0.0164858885	        0.0072802031	       -0.0016906781	        0.0000000000	        0.0000000000	        0.0000000000	      -24.7022317991	      595.4553058959	       17.6019136555	        0.9598130034	        0.0000000000	       -0.0390730585	        0.0000000000	        0.0000000000	        0.0000000000	        0.0000000000	        0.0000000000	        0.0000000000	
        0.7651944087	       -0.0256351055	        0.0109409137	       -0.0026321725	        0.0000000000	        0.0000000000	        0.0000000000	      -21.3355717134	      587.7576144012	       17.6349301389	        0.9653711114	        0.0000000000	       -0.0390480408	        0.0000000000	        0.0000000000	        0.0000000000	        0.0000000000	        0.0000000000	        0.0000000000	
        0.7764472676	       -0.0478332726	        0.0198156940	       -0.0048907015	        0.0000000000	        0.0000000000	        0.0000000000	      -19.6294461177	      583.4126985052	       17.5979297558	        0.9711555777	        0.0000000000	       -0.0389697973	        0.0000000000	        0.0000000000	        0.0000000000	        0.0000000000	        0.0000000000	        0.0000000000	
        0.7877001266	       -0.0984393763	        0.0397432738	       -0.0099842648	        0.0000000000	        0.0000000000	        0.0000000000	      -18.5678736828	      581.5662861553	       17.2920177729	        0.9769922378	        0.0000000000	       -0.0388498064	        0.0000000000	        0.0000000000	        0.0000000000	        0.0000000000	        0.0000000000	        0.0000000000	
        0.7989529855	       -0.2058967983	        0.0813147704	       -0.0206395335	        0.0000000000	        0.0000000000	        0.0000000000	      -17.2891184925	      580.7582694994	       17.0103768990	        0.9828641439	        0.0000000000	       -0.0386946660	        0.0000000000	        0.0000000000	        0.0000000000	        0.0000000000	        0.0000000000	        0.0000000000	
